<svg aria-hidden="true" style="position: absolute; width: 0; height: 0; overflow: hidden;" version="1.1" xmlns="http://www.w3.org/2000/svg" xmlns:xlink="http://www.w3.org/1999/xlink">
<defs>
<symbol id="icon-school" viewBox="0 0 34 32">
<path d="M32 30v-2h-2v-12h2v-2h-6v2h2v12h-6v-12h2v-2h-6v2h2v12h-6v-12h2v-2h-6v2h2v12h-6v-12h2v-2h-6v2h2v12h-2v2h-2v2h34v-2h-2z"></path>
<path d="M16 0h2l16 10v2h-34v-2l16-10z"></path>
</symbol>
<symbol id="icon-menu" viewBox="0 0 32 32">
<path d="M0 2h32v4h-32zM0 8h32v4h-32zM0 14h32v4h-32zM0 20h32v4h-32zM0 26h32v4h-32z"></path>
</symbol>
<symbol id="icon-arrow-narrow-left" viewBox="0 0 32 32">
<path d="M27.467 16c0 0.442-0.358 0.8-0.8 0.8h-21.333c-0.442 0-0.8-0.358-0.8-0.8s0.358-0.8 0.8-0.8h21.333c0.442 0 0.8 0.358 0.8 0.8z"></path>
<path d="M13.899 24.566c-0.312 0.312-0.819 0.312-1.131 0l-8-8c-0.312-0.312-0.312-0.819 0-1.131l8-8c0.312-0.312 0.819-0.312 1.131 0s0.312 0.819 0 1.131l-7.434 7.434 7.434 7.434c0.312 0.312 0.312 0.819 0 1.131z"></path>
</symbol>
<symbol id="icon-arrow-narrow-right" viewBox="0 0 32 32">
<path d="M4.533 16c0-0.442 0.358-0.8 0.8-0.8h21.333c0.442 0 0.8 0.358 0.8 0.8s-0.358 0.8-0.8 0.8h-21.333c-0.442 0-0.8-0.358-0.8-0.8z"></path>
<path d="M18.101 7.434c0.312-0.312 0.819-0.312 1.131 0l8 8c0.312 0.312 0.312 0.819 0 1.131l-8 8c-0.312 0.312-0.819 0.312-1.131 0s-0.312-0.819 0-1.131l7.434-7.434-7.434-7.434c-0.312-0.312-0.312-0.819 0-1.131z"></path>
</symbol>
</defs>
</svg>
